# xmcd
#
# Track frame offsets: 
#        150
#        13054
#        25205
#        42705
#        55852
#        69751
#        84710
#        95423
#        108235
#        118301
#        129289
#        143330
#        156640
#        169568
#        183230
#
# Disc length: 2606 seconds
#
# Revision: 0
# Processed by: cddbd v1.5.2PL0 Copyright (c) Steve Scherf et al.
# Submitted via: ExactAudioCopy v1.0b3
#
DISCID=c40a2c0f
DTITLE=Big Sandy and His Fly-Rite Boys - Rockin' Big Sandy
DYEAR=1999
DGENRE=Swing
TTITLE0=Backdoor Dan 
TTITLE1=Yama Yama Retty Mama
TTITLE2=Hey Lowdown!
TTITLE3=Let Me In There, Baby
TTITLE4=Honky Tonk Queen
TTITLE5=I Can't Believe I'm Saying This to You
TTITLE6=Juiced
TTITLE7=Feelin' Kinda Lucky
TTITLE8=Hey Senorita
TTITLE9=The New Ball
TTITLE10=Jumping From 6 to 6
TTITLE11=Let Her Know
TTITLE12=Backdoor Dan (X-Rated Version)
TTITLE13=Pretty Girls Everywhere
TTITLE14=Playgirl
EXTD=
EXTT0=
EXTT1=
EXTT2=
EXTT3=
EXTT4=
EXTT5=
EXTT6=
EXTT7=
EXTT8=
EXTT9=
EXTT10=
EXTT11=
EXTT12=
EXTT13=
EXTT14=
PLAYORDER=
